<svg xmlns="http://www.w3.org/2000/svg" version="1.1" xmlns:xlink="http://www.w3.org/1999/xlink" xmlns:svgjs="http://svgjs.dev/svgjs" viewBox="0 0 800 800"><defs><filter id="uuunion-blur" x="-100%" y="-100%" width="400%" height="400%" color-interpolation-filters="sRGB">
        <feGaussianBlur in="SourceGraphic" stdDeviation="9.5 1.5" result="blur"></feGaussianBlur>
        <feDropShadow stdDeviation="12.307692307692308" in="blur" dx="10" dy="10" flood-color="hsl(316, 73%, 52%)" flood-opacity="0.25" x="0%" y="0%" width="100%" height="100%"></feDropShadow>
      </filter><filter id="uuunion-blur2" x="-100%" y="-100%" width="400%" height="400%" color-interpolation-filters="sRGB">
        <feGaussianBlur in="SourceGraphic" stdDeviation="9.5 1.5" result="blur"></feGaussianBlur>
        <feDropShadow stdDeviation="12.307692307692308" in="blur" dx="-10" dy="-10" flood-color="hsl(316, 73%, 52%)" flood-opacity="0.25" x="0%" y="0%" width="100%" height="100%"></feDropShadow>
      </filter><linearGradient gradientTransform="rotate(0, 0.5, 0.5)" x1="50%" y1="0%" x2="50%" y2="100%" id="uuunion-grad"><stop stop-color="hsl(37, 99%, 67%)" offset="10%"></stop><stop stop-color="hsl(316, 73%, 52%)" offset="90%"></stop></linearGradient><linearGradient gradientTransform="rotate(135, 0.5, 0.5)" x1="50%" y1="0%" x2="50%" y2="100%" id="uuunion-grad2"><stop stop-color="hsl(37, 99%, 67%)" offset="25%"></stop><stop stop-color="hsl(316, 73%, 52%)" offset="100%"></stop></linearGradient><linearGradient gradientTransform="rotate(333, 0.5, 0.5)" x1="50%" y1="0%" x2="50%" y2="100%" id="uuunion-grad3"><stop stop-color="hsl(37, 99%, 67%)" offset="0%"></stop><stop stop-color="hsl(316, 73%, 52%)" offset="75%"></stop></linearGradient></defs><path d="M-79.58 -88.63Q-64.73 -87.98 -49.88 -84.31 -35.03 -79.01 -20.17 -74.08 -5.32 -71.39 9.52 -71.95 24.38 -75.55 39.23 -80.84 54.08 -85.8 68.93 -88.57 83.79 -88.1 98.64 -84.56 113.49 -79.3 128.35 -74.3 143.2 -71.45 158.05 -71.83 172.9 -75.3 187.76 -80.55 202.61 -85.58 217.46 -88.5 232.32 -88.21 247.17 -84.81 262.02 -79.59 276.87 -74.52 291.73 -71.52 306.58 -71.73 321.43 -75.06 336.29 -80.25 351.14 -85.35 365.99 -88.42 380.84 -88.31 395.7 -85.05 410.55 -79.88 425.4 -74.75 440.26 -71.61 455.11 -71.63 469.96 -74.82 484.81 -79.96 499.67 -85.12 514.52 -88.34 529.37 -88.4 544.23 -85.29 559.08 -80.17 573.93 -74.99 588.78 -71.7 603.64 -71.55 618.49 -74.59 633.34 -79.67 648.2 -84.88 663.05 -88.24 677.9 -88.48 692.75 -85.52 707.61 -80.47 722.46 -75.23 737.31 -71.8 752.17 -71.47 767.02 -74.36 781.87 -79.38 796.73 -84.63 811.58 -88.13 826.43 -88.55 841.28 -85.74 856.14 -80.76 870.99 -75.48 861.11 -60.37 856.18 -45.25 857.47 -30.14 864.66 -15.02 875.86 0.08 888.14 15.2 898.29 30.31 903.65 45.43 902.83 60.55 896.03 75.66 885.03 90.78 872.72 105.89 862.31 121.01 856.53 136.12 856.88 151.24 863.29 166.35 874.06 181.47 886.39 196.58 897.04 211.7 903.24 226.81 903.35 241.93 897.35 257.04 886.81 272.16 874.49 287.28 863.61 302.39 857.01 317.51 856.43 332.62 862.01 347.74 872.3 362.85 884.6 377.97 895.69 393.08 902.68 408.2 903.73 423.31 898.58 438.43 888.56 453.54 876.3 468.66 865 483.78 857.63 498.89 856.11 514.01 860.84 529.12 870.58 544.24 882.78 559.35 894.26 574.47 902 589.58 903.98 604.7 899.69 619.81 890.25 634.93 878.12 650.04 866.49 665.16 858.38 680.28 855.94 695.39 859.78 710.51 868.92 725.62 880.95 740.74 892.73 755.85 901.18 770.97 904.09 786.08 900.69 801.2 891.88 816.31 879.96 831.43 868.05 846.54 859.26 861.66 850.04 877.38 829.53 864.84 814.88 857.43 800.22 858.54 785.57 867.77 770.92 881.62 756.26 894.85 741.61 902.47 726.95 901.59 712.3 892.54 697.64 878.76 682.99 865.43 668.33 857.62 653.68 858.26 639.03 867.12 624.37 880.85 609.72 894.25 595.06 902.27 580.41 901.86 565.75 893.18 551.1 879.52 536.45 866.04 521.79 857.83 507.14 858.01 492.48 866.49 477.83 880.08 463.17 893.64 448.52 902.04 433.86 902.1 419.21 893.81 404.56 880.29 389.9 866.66 375.25 858.07 360.59 857.77 345.94 865.87 331.28 879.31 316.63 893.01 301.97 901.79 287.32 902.33 272.67 894.42 258.01 881.06 243.36 867.3 228.7 858.34 214.05 857.56 199.39 865.27 184.74 878.54 170.09 892.36 155.43 901.51 140.78 902.52 126.12 895.02 111.47 881.83 96.81 867.95 82.16 858.63 67.5 857.38 52.85 864.68 38.2 877.77 23.54 891.71 8.89 901.21 -5.76 902.69 -20.41 895.59 -35.07 882.6 -49.72 868.62 -64.38 858.94 -79.03 857.22 -78.9 842.44 -79.05 827.66 -79.45 812.88 -79.99 798.1 -80.54 783.32 -80.94 768.55 -81.09 753.77 -80.96 738.99 -80.58 724.21 -80.04 709.43 -79.49 694.65 -79.07 679.87 -78.9 665.09 -79.01 650.31 -79.38 635.53 -79.91 620.75 -80.46 605.98 -80.89 591.2 -81.09 576.42 -81 561.64 -80.65 546.86 -80.12 532.08 -79.57 517.3 -79.12 502.52 -78.91 487.74 -78.97 472.96 -79.31 458.18 -79.83 443.4 -80.39 428.63 -80.84 413.85 -81.08 399.07 -81.03 384.29 -80.71 369.51 -80.21 354.73 -79.64 339.95 -79.17 325.17 -78.92 310.39 -78.95 295.61 -79.25 280.83 -79.74 266.06 -80.31 251.28 -80.79 236.5 -81.06 221.72 -81.06 206.94 -80.77 192.16 -80.29 177.38 -79.72 162.6 -79.23 147.82 -78.94 133.04 -78.92 118.26 -79.19 103.48 -79.66 88.71 -80.22 73.93 -80.73 59.15 -81.04 44.37 -81.07 29.59 -80.83 14.81 -80.37 0.03 -79.81 -14.74 -79.3 -29.52 -78.97 -44.3 -78.91 -59.08 -79.13 -73.85 -79.58 -88.63" fill="url(#uuunion-grad)"></path><path d="M-79.58 -88.63Q-79.13 -73.85 -78.91 -59.08 -78.97 -44.3 -79.3 -29.52 -79.81 -14.74 -80.37 0.03 -80.83 14.81 -81.07 29.59 -81.04 44.37 -80.73 59.15 -80.22 73.93 -79.66 88.71 -79.19 103.48 -78.92 118.26 -78.94 133.04 -79.23 147.82 -79.72 162.6 -80.29 177.38 -80.77 192.16 -81.06 206.94 -81.06 221.72 -80.79 236.5 -80.31 251.28 -79.74 266.06 -79.25 280.83 -78.95 295.61 -78.92 310.39 -79.17 325.17 -79.64 339.95 -80.21 354.73 -80.71 369.51 -81.03 384.29 -70.78 384.4 -60.54 387.18 -50.29 392.15 -40.04 398.46 -29.79 405.04 -19.55 410.75 -0.34 415.62 2.98 415.94 15.62 406.85 28.14 394.36 40.51 380.13 52.7 366.3 64.73 354.84 76.6 347.08 88.34 343.39 99.98 343.04 111.59 344.45 123.21 345.57 134.91 344.48 146.74 339.86 158.77 331.32 171.05 319.51 183.61 305.93 196.48 292.52 209.67 281.17 223.16 273.18 236.93 268.97 250.92 267.95 265.07 268.71 279.31 269.38 293.53 268.16 307.65 263.74 321.57 255.7 335.2 244.54 348.46 231.61 361.28 218.67 373.62 207.48 385.45 199.32 396.77 194.63 407.62 192.97 418.05 193.08 428.13 193.28 437.98 191.86 447.7 187.59 457.44 179.99 467.32 169.47 477.49 157.18 488.06 144.73 499.17 133.76 510.88 125.48 523.28 120.37 536.39 118.1 550.22 117.57 564.72 117.26 579.82 115.6 595.43 111.42 611.4 104.22 627.59 94.29 643.81 82.64 659.9 70.71 675.66 60 690.92 51.66 705.55 46.19 719.4 43.34 732.38 42.17 744.45 41.32 755.59 39.38 765.83 35.24 775.25 28.37 783.98 19 792.16 7.98 800 -3.39 787.51 -20.8 779.44 -38.21 778.62 -55.62 785.36 -73.04 797.27 -90.45 810.14 -107.86 812.99 -131.56 791.26 -133.83 775.96 -132.11 760.67 -133.33 745.37 -137.04 730.08 -141.86 714.78 -145.98 699.49 -147.86 684.19 -146.81 668.9 -143.21 653.6 -138.41 638.31 -134.2 623.01 -132.16 607.72 -133.04 592.43 -136.52 577.13 -141.3 561.84 -145.59 546.54 -147.79 531.25 -147.08 515.95 -143.72 500.66 -138.97 485.36 -134.6 470.07 -132.25 454.77 -132.79 439.48 -136.02 424.18 -140.74 408.89 -145.17 393.59 -147.68 378.3 -147.31 363 -144.21 347.71 -139.54 332.41 -135.03 317.12 -132.38 301.82 -132.57 286.53 -135.54 271.23 -140.17 255.94 -144.73 240.64 -147.53 225.35 -147.51 210.05 -144.68 194.76 -140.11 179.46 -135.49 164.17 -132.56 148.87 -132.4 133.58 -135.08 118.28 -139.6 102.99 -144.26 87.69 -147.33 72.4 -147.67 57.1 -145.13 41.81 -140.68 26.51 -135.97 11.22 -132.77 -4.07 -132.26 -19.36 -134.64 -34.66 -139.03 -49.95 -143.77 -65.25 -147.1 -80.54 -147.78 -95.84 -145.55 -111.13 -141.25 -126.43 -136.47 -136.35 -121.04 -118.25 -108.64 -108.45 -104.36 -98.71 -99.89 -89.08 -94.78 -79.58 -88.63" fill="url(#uuunion-grad2)" filter="url(#uuunion-blur)"></path><path d="M820.71 394.56Q830.95 388.93 841.2 385.2 851.45 384 861.69 385.54 871.94 389.55 882.19 395.34 892.44 401.94 902.68 408.2 903.73 423.31 898.58 438.43 888.56 453.54 876.3 468.66 865 483.78 857.63 498.89 856.11 514.01 860.84 529.12 870.58 544.24 882.78 559.35 894.26 574.47 902 589.58 903.98 604.7 899.69 619.81 890.25 634.93 878.12 650.04 866.49 665.16 858.38 680.28 855.94 695.39 859.78 710.51 868.92 725.62 880.95 740.74 892.73 755.85 901.18 770.97 904.09 786.08 900.69 801.2 891.88 816.31 879.96 831.43 868.05 846.54 859.26 861.66 850.65 877.98 831.94 866.73 818.5 858.52 805.05 857.19 791.6 863.16 778.15 874.51 764.7 887.62 751.25 898.29 737.81 903.1 724.36 900.52 710.91 891.37 697.46 878.57 684.01 866.24 670.56 858.3 657.11 857.31 643.67 863.58 630.22 875.1 616.77 888.19 603.32 898.66 589.87 903.15 576.42 900.23 562.98 890.84 549.53 877.97 536.08 865.75 522.63 858.09 509.18 857.44 495.73 864.01 482.28 875.7 468.84 888.75 455.39 899.01 441.94 903.18 428.49 899.93 415.04 890.3 401.59 877.37 388.15 865.28 374.7 857.9 361.25 857.59 347.8 864.46 334.35 876.29 320.9 889.31 307.45 899.35 294.01 903.19 280.56 899.61 267.11 889.75 253.66 876.77 240.21 864.82 226.76 857.73 213.32 857.76 199.87 864.91 186.42 876.89 172.97 889.86 159.52 899.68 146.07 903.19 132.62 899.28 119.18 889.2 105.73 876.17 92.28 864.37 78.83 857.56 65.38 857.94 51.93 865.37 38.49 877.49 25.04 890.41 4.81 896.51 -1.95 882.88 -1.83 872.73 -1.62 862.58 -1.33 852.43 -1 842.28 -0.27 827.06 0.63 822 13.54 812.75 26.49 798.51 39.42 781.43 52.31 764.39 65.09 750.25 77.72 741.06 90.17 737.56 102.41 738.97 114.44 743.22 126.25 747.52 137.88 749.08 149.34 745.86 160.7 737.1 172.01 723.52 183.33 707.1 194.75 690.54 206.34 676.57 218.16 667.21 230.28 663.23 242.74 663.98 255.58 667.58 268.8 671.4 282.4 672.76 296.35 669.7 310.6 661.41 325.07 648.47 339.68 632.7 354.33 616.63 368.9 602.87 383.29 593.37 397.38 588.95 411.08 589.08 424.31 592.02 436.99 595.33 449.1 596.48 460.62 593.53 471.57 585.66 482 573.34 491.99 558.22 501.63 542.67 511.06 529.15 520.41 519.55 529.85 514.73 539.52 514.24 549.57 516.54 560.13 519.32 571.33 520.21 583.26 517.34 595.96 509.86 609.46 498.14 623.75 483.67 638.76 468.65 654.4 455.4 670.54 445.75 687.02 440.55 703.67 439.48 720.28 441.13 736.66 443.38 752.62 443.98 767.97 441.15 782.56 434.01 796.26 422.86 808.99 409.03 820.71 394.56 820.71 394.56 820.71 394.56" fill="url(#uuunion-grad3)" filter="url(#uuunion-blur2)"></path></svg>