<svg xmlns="http://www.w3.org/2000/svg" version="1.1" xmlns:xlink="http://www.w3.org/1999/xlink" xmlns:svgjs="http://svgjs.dev/svgjs" viewBox="0 0 2400 800" opacity="0.86"><defs><linearGradient x1="50%" y1="0%" x2="50%" y2="100%" id="sssurf-grad"><stop stop-color="hsl(37, 99%, 67%)" stop-opacity="1" offset="0%"></stop><stop stop-color="hsl(316, 73%, 52%)" stop-opacity="1" offset="100%"></stop></linearGradient></defs><g fill="url(#sssurf-grad)" transform="matrix(1,0,0,1,0,-176.39260864257812)"><path d="M 0 343.8314277487948 Q 900 574.3709106026062 1200 336.2935422653638 Q 2100 548.1452784067 2400 339.0590706108927 L 2400 800 L 0 800 L 0 323.78525417775006 Z" transform="matrix(1,0,0,1,0,33)" opacity="0.05"></path><path d="M 0 343.8314277487948 Q 900 574.3709106026062 1200 336.2935422653638 Q 2100 548.1452784067 2400 339.0590706108927 L 2400 800 L 0 800 L 0 323.78525417775006 Z" transform="matrix(1,0,0,1,0,66)" opacity="0.14"></path><path d="M 0 343.8314277487948 Q 900 574.3709106026062 1200 336.2935422653638 Q 2100 548.1452784067 2400 339.0590706108927 L 2400 800 L 0 800 L 0 323.78525417775006 Z" transform="matrix(1,0,0,1,0,99)" opacity="0.22"></path><path d="M 0 343.8314277487948 Q 900 574.3709106026062 1200 336.2935422653638 Q 2100 548.1452784067 2400 339.0590706108927 L 2400 800 L 0 800 L 0 323.78525417775006 Z" transform="matrix(1,0,0,1,0,132)" opacity="0.31"></path><path d="M 0 343.8314277487948 Q 900 574.3709106026062 1200 336.2935422653638 Q 2100 548.1452784067 2400 339.0590706108927 L 2400 800 L 0 800 L 0 323.78525417775006 Z" transform="matrix(1,0,0,1,0,165)" opacity="0.40"></path><path d="M 0 343.8314277487948 Q 900 574.3709106026062 1200 336.2935422653638 Q 2100 548.1452784067 2400 339.0590706108927 L 2400 800 L 0 800 L 0 323.78525417775006 Z" transform="matrix(1,0,0,1,0,198)" opacity="0.48"></path><path d="M 0 343.8314277487948 Q 900 574.3709106026062 1200 336.2935422653638 Q 2100 548.1452784067 2400 339.0590706108927 L 2400 800 L 0 800 L 0 323.78525417775006 Z" transform="matrix(1,0,0,1,0,231)" opacity="0.57"></path><path d="M 0 343.8314277487948 Q 900 574.3709106026062 1200 336.2935422653638 Q 2100 548.1452784067 2400 339.0590706108927 L 2400 800 L 0 800 L 0 323.78525417775006 Z" transform="matrix(1,0,0,1,0,264)" opacity="0.65"></path><path d="M 0 343.8314277487948 Q 900 574.3709106026062 1200 336.2935422653638 Q 2100 548.1452784067 2400 339.0590706108927 L 2400 800 L 0 800 L 0 323.78525417775006 Z" transform="matrix(1,0,0,1,0,297)" opacity="0.74"></path><path d="M 0 343.8314277487948 Q 900 574.3709106026062 1200 336.2935422653638 Q 2100 548.1452784067 2400 339.0590706108927 L 2400 800 L 0 800 L 0 323.78525417775006 Z" transform="matrix(1,0,0,1,0,330)" opacity="0.83"></path><path d="M 0 343.8314277487948 Q 900 574.3709106026062 1200 336.2935422653638 Q 2100 548.1452784067 2400 339.0590706108927 L 2400 800 L 0 800 L 0 323.78525417775006 Z" transform="matrix(1,0,0,1,0,363)" opacity="0.91"></path><path d="M 0 343.8314277487948 Q 900 574.3709106026062 1200 336.2935422653638 Q 2100 548.1452784067 2400 339.0590706108927 L 2400 800 L 0 800 L 0 323.78525417775006 Z" transform="matrix(1,0,0,1,0,396)" opacity="1.00"></path></g></svg>